<svg xmlns="http://www.w3.org/2000/svg" xmlns:xlink="http://www.w3.org/1999/xlink" width="100" zoomAndPan="magnify" viewBox="0 0 75 37.5" height="50" preserveAspectRatio="xMidYMid meet" version="1.0"><defs><g/><clipPath id="id1"><path d="M 4.195312 5.472656 L 27.136719 5.472656 L 27.136719 33.597656 L 4.195312 33.597656 Z M 4.195312 5.472656 " clip-rule="nonzero"/></clipPath></defs><g fill="#000000" fill-opacity="1"><g transform="translate(23.444371, 15.947367)"><g><path d="M 8.351562 -7.789062 L 8.324219 -7.789062 L 4.898438 -1.304688 L 1.523438 -7.789062 L 1.488281 -7.789062 L 0.4375 0.0117188 L 0.632812 0.0117188 L 1.449219 -6.035156 L 4.484375 -0.195312 L 4.535156 -0.195312 L 7.667969 -6.132812 L 8.386719 0.0117188 L 9.265625 0.0117188 Z M 8.351562 -7.789062 "/></g></g></g><g fill="#000000" fill-opacity="1"><g transform="translate(33.207803, 15.947367)"><g><path d="M 6.375 0.0117188 L 7.3125 0.0117188 L 3.960938 -7.789062 L 3.902344 -7.789062 L 0.425781 0.0117188 L 0.695312 0.0117188 L 2.074219 -3.058594 L 5.046875 -3.058594 Z M 2.15625 -3.265625 L 3.582031 -6.472656 L 4.960938 -3.265625 Z M 2.15625 -3.265625 "/></g></g></g><g fill="#000000" fill-opacity="1"><g transform="translate(40.960042, 15.947367)"><g><path d="M 0.304688 -0.5625 L 0.304688 -0.28125 C 0.304688 -0.28125 1.046875 0.316406 2.363281 0.316406 C 3.679688 0.316406 4.9375 -0.597656 4.9375 -1.949219 C 4.9375 -4.679688 1.023438 -3.875 1.023438 -6.09375 C 1.023438 -6.960938 1.621094 -7.667969 2.667969 -7.667969 C 3.707031 -7.667969 4.375 -7.167969 4.375 -7.167969 L 4.363281 -7.421875 C 4.363281 -7.421875 3.632812 -7.875 2.65625 -7.875 C 1.695312 -7.875 0.339844 -7.289062 0.339844 -5.765625 C 0.339844 -3.035156 4.242188 -4.058594 4.242188 -1.644531 C 4.242188 -0.464844 3.339844 0.121094 2.363281 0.121094 C 1.316406 0.121094 0.730469 -0.230469 0.304688 -0.5625 Z M 0.304688 -0.5625 "/></g></g></g><g fill="#000000" fill-opacity="1"><g transform="translate(46.384169, 15.947367)"><g><path d="M 5.984375 -7.644531 L 0.402344 -7.644531 L 0.402344 -7.449219 L 2.753906 -7.449219 L 2.753906 0.0117188 L 3.632812 0.0117188 L 3.632812 -7.449219 L 5.984375 -7.449219 Z M 5.984375 -7.644531 "/></g></g></g><g fill="#000000" fill-opacity="1"><g transform="translate(52.783422, 15.947367)"><g><path d="M 4.460938 -7.449219 L 4.460938 -7.644531 L 0.585938 -7.644531 L 0.585938 0.0117188 L 4.460938 0.0117188 L 4.460938 -0.183594 L 1.449219 -0.183594 L 1.449219 -3.886719 L 4.132812 -3.886719 L 4.132812 -4.082031 L 1.449219 -4.082031 L 1.449219 -7.449219 Z M 4.460938 -7.449219 "/></g></g></g><g fill="#000000" fill-opacity="1"><g transform="translate(57.768739, 15.947367)"><g><path d="M 5.949219 0.0117188 L 3.085938 -3.597656 C 3.984375 -3.71875 5.351562 -4.15625 5.351562 -5.730469 C 5.351562 -7.410156 3.523438 -7.644531 2.902344 -7.644531 C 2.304688 -7.644531 0.585938 -7.644531 0.585938 -7.644531 L 0.585938 0.0117188 L 1.449219 0.0117188 L 1.449219 -3.546875 L 2.011719 -3.546875 L 4.839844 0.0117188 Z M 1.449219 -7.449219 L 2.4375 -7.449219 C 3.679688 -7.449219 4.425781 -6.9375 4.425781 -5.59375 C 4.425781 -4.230469 3.546875 -3.742188 2.121094 -3.742188 L 1.449219 -3.742188 Z M 1.449219 -7.449219 "/></g></g></g><g fill="#000000" fill-opacity="1"><g transform="translate(64.131425, 15.947367)"><g><path d="M 1.011719 -6.15625 L 1.328125 -8.058594 L 0.535156 -8.058594 L 0.839844 -6.15625 Z M 1.011719 -6.15625 "/></g></g></g><g fill="#000000" fill-opacity="1"><g transform="translate(65.984159, 15.947367)"><g><path d="M 0.304688 -0.5625 L 0.304688 -0.28125 C 0.304688 -0.28125 1.046875 0.316406 2.363281 0.316406 C 3.679688 0.316406 4.9375 -0.597656 4.9375 -1.949219 C 4.9375 -4.679688 1.023438 -3.875 1.023438 -6.09375 C 1.023438 -6.960938 1.621094 -7.667969 2.667969 -7.667969 C 3.707031 -7.667969 4.375 -7.167969 4.375 -7.167969 L 4.363281 -7.421875 C 4.363281 -7.421875 3.632812 -7.875 2.65625 -7.875 C 1.695312 -7.875 0.339844 -7.289062 0.339844 -5.765625 C 0.339844 -3.035156 4.242188 -4.058594 4.242188 -1.644531 C 4.242188 -0.464844 3.339844 0.121094 2.363281 0.121094 C 1.316406 0.121094 0.730469 -0.230469 0.304688 -0.5625 Z M 0.304688 -0.5625 "/></g></g></g><g fill="#000000" fill-opacity="1"><g transform="translate(30.545008, 27.789472)"><g><path d="M 5.5 -7.027344 L 0.371094 -7.027344 L 0.371094 -6.847656 L 2.53125 -6.847656 L 2.53125 0.0117188 L 3.339844 0.0117188 L 3.339844 -6.847656 L 5.5 -6.847656 Z M 5.5 -7.027344 "/></g></g></g><g fill="#000000" fill-opacity="1"><g transform="translate(36.422129, 27.789472)"><g><path d="M 4.304688 -7.160156 C 2.285156 -7.160156 0.449219 -6.085938 0.449219 -3.484375 C 0.449219 -0.492188 2.890625 0.214844 4.304688 0.214844 C 5.703125 0.214844 8.15625 -0.492188 8.15625 -3.484375 C 8.15625 -6.085938 6.308594 -7.160156 4.304688 -7.160156 Z M 4.304688 0.0234375 C 3.035156 0.0234375 1.265625 -0.539062 1.265625 -3.484375 C 1.265625 -6.386719 3.214844 -6.980469 4.304688 -6.980469 C 5.390625 -6.980469 7.339844 -6.386719 7.339844 -3.484375 C 7.339844 -0.539062 5.558594 0.0234375 4.304688 0.0234375 Z M 4.304688 0.0234375 "/></g></g></g><g fill="#000000" fill-opacity="1"><g transform="translate(45.08668, 27.789472)"><g><path d="M 5.660156 -7.027344 L 5.660156 -2.6875 C 5.660156 -0.550781 4.570312 -0.078125 3.292969 -0.078125 C 1.402344 -0.078125 1.300781 -1.792969 1.300781 -2.589844 L 1.300781 -7.027344 L 0.503906 -7.027344 L 0.503906 -2.589844 C 0.503906 -0.300781 1.804688 0.214844 3.125 0.214844 C 4.917969 0.214844 5.847656 -0.738281 5.847656 -2.589844 L 5.847656 -7.027344 Z M 5.660156 -7.027344 "/></g></g></g><g fill="#000000" fill-opacity="1"><g transform="translate(51.478751, 27.789472)"><g><path d="M 6.355469 -0.628906 C 6.355469 -0.628906 5.601562 0.0234375 4.304688 0.0234375 C 3.046875 0.0234375 1.265625 -0.539062 1.265625 -3.484375 C 1.265625 -6.386719 3.214844 -6.980469 4.304688 -6.980469 C 5.625 -6.980469 6.355469 -6.453125 6.355469 -6.453125 L 6.355469 -6.699219 C 6.355469 -6.699219 5.582031 -7.160156 4.304688 -7.160156 C 2.285156 -7.160156 0.449219 -6.085938 0.449219 -3.484375 C 0.449219 -0.492188 2.789062 0.214844 4.203125 0.214844 C 5.601562 0.214844 6.355469 -0.382812 6.355469 -0.382812 Z M 6.355469 -0.628906 "/></g></g></g><g fill="#000000" fill-opacity="1"><g transform="translate(58.307406, 27.789472)"><g><path d="M 4.628906 -7.027344 L 4.628906 -3.753906 L 1.332031 -3.753906 L 1.332031 -7.027344 L 0.539062 -7.027344 L 0.539062 0.0117188 L 1.332031 0.0117188 L 1.332031 -3.574219 L 4.628906 -3.574219 L 4.628906 0.0117188 L 5.433594 0.0117188 L 5.433594 -7.027344 Z M 4.628906 -7.027344 "/></g></g></g><g clip-path="url(#id1)"><path fill="#000000" d="M 8.945312 30.902344 C 8.894531 30.9375 8.839844 30.953125 8.78125 30.953125 C 8.691406 30.953125 8.601562 30.910156 8.546875 30.832031 C 8.457031 30.699219 8.488281 30.523438 8.617188 30.429688 C 10.277344 29.253906 10.011719 27.359375 10.011719 27.339844 C 9.988281 27.183594 10.09375 27.035156 10.25 27.011719 C 10.40625 26.988281 10.550781 27.09375 10.578125 27.253906 C 10.589844 27.34375 10.894531 29.523438 8.945312 30.902344 Z M 27.128906 28.554688 L 21.683594 23.523438 L 19.210938 24.949219 C 19.15625 24.980469 19.097656 24.996094 19.039062 24.996094 C 18.921875 24.996094 18.804688 24.933594 18.742188 24.824219 C 18.644531 24.660156 18.699219 24.449219 18.863281 24.351562 L 21.296875 22.949219 L 21.257812 22.875 C 20.898438 22.222656 19.679688 22.167969 18.769531 22.398438 L 15.09375 15.710938 L 20.019531 6.589844 C 20.199219 6.257812 20.078125 5.835938 19.746094 5.652344 C 19.410156 5.472656 18.992188 5.597656 18.8125 5.929688 L 14.304688 14.273438 L 9.796875 6.070312 C 9.613281 5.738281 9.191406 5.617188 8.863281 5.800781 C 8.53125 5.984375 8.410156 6.40625 8.59375 6.738281 L 13.527344 15.714844 L 9.917969 22.398438 C 9.410156 22.402344 8.925781 22.667969 8.667969 23.144531 L 8.429688 23.585938 C 8.429688 23.585938 6.761719 23.589844 5.664062 24.988281 C 4.207031 26.835938 5.214844 28.472656 5.363281 30.125 C 5.476562 31.363281 4.285156 31.761719 4.285156 31.761719 C 4.285156 31.761719 5.59375 33.457031 8.589844 32.277344 C 11.136719 31.273438 12.617188 27.921875 11.640625 25.863281 C 11.457031 25.472656 11.230469 25.148438 10.988281 24.878906 L 11.183594 24.515625 C 11.441406 24.039062 11.394531 23.484375 11.125 23.058594 L 14.316406 17.152344 L 17.566406 23.066406 C 16.890625 23.71875 16.285156 24.785156 16.644531 25.4375 L 16.925781 25.949219 L 18.304688 33.457031 C 18.304688 33.457031 20.738281 33.597656 23.34375 32.148438 C 24.054688 31.753906 24.882812 31.066406 25.386719 30.625 L 24.574219 28.90625 L 25.933594 29.949219 L 26.332031 29.5 L 25.261719 28.253906 L 26.761719 28.917969 L 27.128906 28.554688 " fill-opacity="1" fill-rule="nonzero"/></g></svg>